REM DIRINDEX 1\2,1\3,1\4,1\5
REM DIRNAME cjc004,folder01,folder02,folder03,folder04
TITLE ""
FILE "1Q_t_1297-1306.mp3" MP3
  TRACK 01 AUDIO
    TITLE "3:cjc004_4796"
    INDEX 01 00:00:00
  TRACK 02 AUDIO
    TITLE "0:"
    INDEX 01 00:01:09
  TRACK 03 AUDIO
    TITLE "4:cjc004_4797"
    INDEX 01 00:01:40
  TRACK 04 AUDIO
    TITLE "0:"
    INDEX 01 00:02:57
  TRACK 05 AUDIO
    TITLE "5:cjc004_4798"
    INDEX 01 00:03:08
  TRACK 06 AUDIO
    TITLE "0:"
    INDEX 01 00:06:73
  TRACK 07 AUDIO
    TITLE "3:cjc004_4799"
    INDEX 01 00:07:51
  TRACK 08 AUDIO
    TITLE "0:"
    INDEX 01 00:08:56
  TRACK 09 AUDIO
    TITLE "4:cjc004_4800"
    INDEX 01 00:09:14
  TRACK 10 AUDIO
    TITLE "0:"
    INDEX 01 00:10:37
  TRACK 11 AUDIO
    TITLE "5:cjc004_4801"
    INDEX 01 00:10:66
  TRACK 12 AUDIO
    TITLE "0:"
    INDEX 01 00:15:34
  TRACK 13 AUDIO
    TITLE "3:cjc004_4802"
    INDEX 01 00:16:10
  TRACK 14 AUDIO
    TITLE "0:"
    INDEX 01 00:17:37
  TRACK 15 AUDIO
    TITLE "4:cjc004_4803"
    INDEX 01 00:17:67
  TRACK 16 AUDIO
    TITLE "0:"
    INDEX 01 00:19:07
  TRACK 17 AUDIO
    TITLE "5:cjc004_4804"
    INDEX 01 00:19:30
  TRACK 18 AUDIO
    TITLE "0:"
    INDEX 01 00:23:69
  TRACK 19 AUDIO
    TITLE "3:cjc004_4805"
    INDEX 01 00:24:47
  TRACK 20 AUDIO
    TITLE "0:"
    INDEX 01 00:25:70
  TRACK 21 AUDIO
    TITLE "4:cjc004_4806"
    INDEX 01 00:26:24
  TRACK 22 AUDIO
    TITLE "0:"
    INDEX 01 00:27:49
  TRACK 23 AUDIO
    TITLE "5:cjc004_4807"
    INDEX 01 00:28:02
  TRACK 24 AUDIO
    TITLE "0:"
    INDEX 01 00:32:29
  TRACK 25 AUDIO
    TITLE "3:cjc004_4808"
    INDEX 01 00:33:11
  TRACK 26 AUDIO
    TITLE "0:"
    INDEX 01 00:34:20
  TRACK 27 AUDIO
    TITLE "4:cjc004_4809"
    INDEX 01 00:34:43
  TRACK 28 AUDIO
    TITLE "0:"
    INDEX 01 00:35:72
  TRACK 29 AUDIO
    TITLE "5:cjc004_4810"
    INDEX 01 00:36:19
  TRACK 30 AUDIO
    TITLE "0:"
    INDEX 01 00:40:34
  TRACK 31 AUDIO
    TITLE "3:cjc004_4811"
    INDEX 01 00:41:08
  TRACK 32 AUDIO
    TITLE "0:"
    INDEX 01 00:42:21
  TRACK 33 AUDIO
    TITLE "4:cjc004_4812"
    INDEX 01 00:42:45
  TRACK 34 AUDIO
    TITLE "0:"
    INDEX 01 00:43:70
  TRACK 35 AUDIO
    TITLE "5:cjc004_4813"
    INDEX 01 00:44:22
  TRACK 36 AUDIO
    TITLE "0:"
    INDEX 01 00:49:51
  TRACK 37 AUDIO
    TITLE "3:cjc004_4814"
    INDEX 01 00:50:33
  TRACK 38 AUDIO
    TITLE "0:"
    INDEX 01 00:51:32
  TRACK 39 AUDIO
    TITLE "4:cjc004_4815"
    INDEX 01 00:51:62
  TRACK 40 AUDIO
    TITLE "0:"
    INDEX 01 00:53:15
  TRACK 41 AUDIO
    TITLE "5:cjc004_4816"
    INDEX 01 00:53:39
  TRACK 42 AUDIO
    TITLE "0:"
    INDEX 01 00:57:64
  TRACK 43 AUDIO
    TITLE "3:cjc004_4817"
    INDEX 01 00:58:40
  TRACK 44 AUDIO
    TITLE "0:"
    INDEX 01 00:59:38
  TRACK 45 AUDIO
    TITLE "4:cjc004_4818"
    INDEX 01 00:59:63
  TRACK 46 AUDIO
    TITLE "0:"
    INDEX 01 01:01:03
  TRACK 47 AUDIO
    TITLE "5:cjc004_4819"
    INDEX 01 01:01:29
  TRACK 48 AUDIO
    TITLE "0:"
    INDEX 01 01:06:06
  TRACK 49 AUDIO
    TITLE "3:cjc004_4820"
    INDEX 01 01:06:63
  TRACK 50 AUDIO
    TITLE "0:"
    INDEX 01 01:08:15
  TRACK 51 AUDIO
    TITLE "4:cjc004_4821"
    INDEX 01 01:08:46
  TRACK 52 AUDIO
    TITLE "0:"
    INDEX 01 01:10:16
  TRACK 53 AUDIO
    TITLE "5:cjc004_4822"
    INDEX 01 01:10:43
  TRACK 54 AUDIO
    TITLE "0:"
    INDEX 01 01:14:51
  TRACK 55 AUDIO
    TITLE "3:cjc004_4823"
    INDEX 01 01:15:29
  TRACK 56 AUDIO
    TITLE "0:"
    INDEX 01 01:16:38
  TRACK 57 AUDIO
    TITLE "4:cjc004_4824"
    INDEX 01 01:16:61
  TRACK 58 AUDIO
    TITLE "0:"
    INDEX 01 01:18:23
  TRACK 59 AUDIO
    TITLE "5:cjc004_4825"
    INDEX 01 01:18:45
  TRACK 60 AUDIO
    TITLE "0:"
    INDEX 01 01:23:65
